<?xml version="1.0" encoding="UTF-8"?>
<svg version="1.1" xmlns="http://www.w3.org/2000/svg" width="512" height="512">
<path d="M0 0 C3.57333115 3.24092825 5.3334841 6.74848389 5.95889282 11.49893188 C6.06536327 13.77202918 6.07745712 16.02536901 6.05078125 18.30078125 C6.05127975 19.13280563 6.05177826 19.96483002 6.05229187 20.82206726 C6.04996253 22.57435505 6.04030174 24.3266469 6.02368164 26.07885742 C6.00016029 28.73191983 6.00312109 31.38396952 6.00976562 34.03710938 C5.98692687 48.79103476 5.05555704 62.81810736 -5.5 74.3125 C-14.87060393 82.7729349 -25.70592203 85.76042873 -38.04174805 85.69287109 C-38.86247803 85.69649155 -39.68320801 85.700112 -40.52880859 85.70384216 C-42.2933053 85.71068398 -44.05782293 85.7132515 -45.82233238 85.71189499 C-48.61825548 85.71092218 -51.41380211 85.72395812 -54.20967102 85.74087524 C-62.15252873 85.78693758 -70.09534314 85.81176889 -78.03833008 85.81835938 C-82.91180295 85.8233761 -87.78487546 85.84762318 -92.65821266 85.88368607 C-94.50930184 85.89346971 -96.36044615 85.89582385 -98.21155357 85.89051437 C-100.79861699 85.88343645 -103.3844851 85.90073669 -105.97143555 85.92333984 C-106.73053726 85.91516739 -107.48963898 85.90699493 -108.27174377 85.89857483 C-113.43088249 85.97861845 -116.43620228 87.03126696 -120.3125 90.4375 C-123.35030145 94.96784425 -123.77649339 99.13758512 -123.82421875 104.4609375 C-123.84216995 105.20711334 -123.86012115 105.95328918 -123.87861633 106.72207642 C-123.93243105 109.0854949 -123.96652067 111.44871486 -124 113.8125 C-124.03319872 115.42320454 -124.06769072 117.03388298 -124.10351562 118.64453125 C-124.18814018 122.57537687 -124.25508743 126.50616659 -124.3125 130.4375 C-123.30921882 130.43335193 -123.30921882 130.43335193 -122.28566933 130.42912006 C-105.93112621 130.36256047 -89.57662658 130.31307475 -73.22197914 130.28206348 C-65.31264982 130.266664 -57.40341149 130.24570872 -49.49414062 130.21118164 C-42.59191837 130.18106536 -35.68976209 130.16187489 -28.78747594 130.15523452 C-25.140467 130.15135944 -21.49364662 130.1424014 -17.84669876 130.12030983 C20.69286363 129.89617488 53.23363343 136.95941761 81.6875 164.4375 C82.89599609 165.55125 82.89599609 165.55125 84.12890625 166.6875 C103.01546426 184.55582619 115.39079246 212.06345736 116.89086914 237.9465332 C116.99059114 241.69623016 117.0166911 245.43653378 117 249.1875 C116.99784485 249.84769135 116.9956897 250.50788269 116.99346924 251.18807983 C116.82183895 283.98484299 104.09587818 312.08162939 81.1875 335.3125 C75.73507804 340.69544287 70.29478738 345.50185491 63.6875 349.4375 C63.12514648 349.78474121 62.56279297 350.13198242 61.98339844 350.48974609 C34.2645148 367.52576327 1.43883336 372.88253916 -30.3125 365.4375 C-54.24615693 359.61899966 -73.15953384 346.75918386 -90.3125 329.4375 C-90.94671875 328.80070312 -91.5809375 328.16390625 -92.234375 327.5078125 C-99.42962756 319.85132581 -104.63089612 310.80070776 -109.3125 301.4375 C-121.1925 301.4375 -133.0725 301.4375 -145.3125 301.4375 C-146.611875 303.850625 -147.91125 306.26375 -149.25 308.75 C-153.26787016 316.03081382 -157.82739598 322.17630096 -163.3125 328.4375 C-163.98667969 329.29472656 -164.66085938 330.15195312 -165.35546875 331.03515625 C-183.0727913 352.78396537 -212.96815415 365.01483053 -240.14526367 368.23901367 C-269.90575424 370.96462805 -300.20356113 363.39474798 -324.3125 345.4375 C-328.46346147 341.91400945 -332.39678418 338.21893201 -336.3125 334.4375 C-337.52099609 333.32375 -337.52099609 333.32375 -338.75390625 332.1875 C-357.64046426 314.31917381 -370.01579246 286.81154264 -371.51586914 260.9284668 C-371.61559114 257.17876984 -371.6416911 253.43846622 -371.625 249.6875 C-371.62284485 249.02730865 -371.6206897 248.36711731 -371.61846924 247.68692017 C-371.44212943 213.99021827 -357.9038058 185.39686302 -334.19067383 161.82739258 C-327.8120205 155.71620806 -320.95844606 150.83215091 -313.3125 146.4375 C-312.68794922 146.07575684 -312.06339844 145.71401367 -311.41992188 145.34130859 C-303.65757917 140.94065738 -295.71575228 137.6780798 -287.1875 135.0625 C-286.0260144 134.70430176 -286.0260144 134.70430176 -284.84106445 134.33886719 C-269.06861163 129.80762723 -253.26447578 130.17147171 -237.0078125 130.2421875 C-234.4719148 130.24592379 -231.93601564 130.24876785 -229.40011597 130.25076294 C-223.44358278 130.25757839 -217.48711656 130.27328671 -211.53061759 130.29346192 C-204.73962261 130.31595555 -197.94862371 130.32684791 -191.15760064 130.33685279 C-177.20919253 130.35765768 -163.2608504 130.39274875 -149.3125 130.4375 C-149.33344727 129.34920898 -149.35439453 128.26091797 -149.37597656 127.13964844 C-149.44915517 123.04701236 -149.49457844 118.95443231 -149.53222656 114.86132812 C-149.55216673 113.10016103 -149.57932911 111.3390586 -149.61425781 109.578125 C-149.87405223 96.12994321 -149.45239322 84.21251816 -140.28515625 73.46875 C-131.34215425 64.26011427 -122.07198035 60.18351263 -109.28027344 59.93920898 C-106.66525113 59.91317608 -104.05170422 59.90917171 -101.43657684 59.92107964 C-98.61902754 59.93383296 -95.80244016 59.92231006 -92.98492432 59.90504456 C-88.02284949 59.87848494 -83.06101517 59.87274389 -78.09887695 59.87414551 C-70.14443729 59.87638403 -62.19029344 59.86216165 -54.23596954 59.81855965 C-51.46898096 59.80876057 -48.70246432 59.81741442 -45.93548584 59.82725525 C-44.2327036 59.82110949 -42.5299239 59.81419724 -40.82714844 59.80639648 C-40.06543335 59.81411575 -39.30371826 59.82183502 -38.5189209 59.82978821 C-32.33403741 59.77152544 -27.45678485 58.58178485 -22.9375 54.0625 C-19.73739098 48.89309313 -20.16629295 43.30700946 -20.13671875 37.41015625 C-20.11352732 35.63084746 -20.08941026 33.85155053 -20.06445312 32.07226562 C-20.02932886 29.28320262 -19.99997396 26.49457975 -19.98657227 23.70532227 C-19.97106333 21.00223453 -19.93084974 18.30040872 -19.88671875 15.59765625 C-19.88862717 14.76935806 -19.89053558 13.94105988 -19.89250183 13.08766174 C-19.78016952 7.74561707 -18.82594126 4.69640472 -15.3125 0.4375 C-10.75347744 -3.14458915 -4.89113361 -2.3071385 0 0 Z M-323.125 186.25 C-339.73069521 205.78792763 -348.84188879 230.59461823 -346.9140625 256.2980957 C-345.05903859 276.37353227 -337.79662755 295.28495099 -324.3125 310.4375 C-323.46751953 311.47777344 -323.46751953 311.47777344 -322.60546875 312.5390625 C-308.03458303 330.21521895 -284.75148543 340.78927411 -262.3125 343.4375 C-236.68210373 344.97872882 -212.15078819 338.2296019 -192.3125 321.4375 C-191.67183594 320.94121094 -191.03117188 320.44492187 -190.37109375 319.93359375 C-179.80011247 311.41274217 -172.69154297 300.21645353 -167.06640625 288.03125 C-162.34194494 278.3508393 -162.34194494 278.3508393 -157.3125 276.4375 C-154.59402466 276.17007446 -154.59402466 276.17007446 -151.44580078 276.14697266 C-150.26422394 276.13421295 -149.08264709 276.12145325 -147.86526489 276.10830688 C-146.5923056 276.10608124 -145.31934631 276.10385559 -144.0078125 276.1015625 C-142.69593964 276.0949057 -141.38406677 276.0882489 -140.03244019 276.08139038 C-137.25678212 276.06942805 -134.48124842 276.06570844 -131.70556641 276.06689453 C-128.15908862 276.06709762 -124.61341313 276.03980315 -121.06712532 276.00535011 C-117.67234284 275.97768435 -114.27770618 275.97893064 -110.8828125 275.9765625 C-108.97944626 275.95500595 -108.97944626 275.95500595 -107.03762817 275.93301392 C-95.94691515 275.99046413 -95.94691515 275.99046413 -91.3125 280.4375 C-90.00805664 282.18579102 -90.00805664 282.18579102 -89.22265625 283.94140625 C-88.76487793 284.92016724 -88.76487793 284.92016724 -88.29785156 285.91870117 C-87.99331055 286.60552979 -87.68876953 287.2923584 -87.375 288 C-86.68767827 289.44725936 -85.99624547 290.89257326 -85.30078125 292.3359375 C-84.79538818 293.39119629 -84.79538818 293.39119629 -84.27978516 294.46777344 C-73.90570793 315.59297662 -54.74788416 330.57532083 -32.96484375 338.68359375 C-8.05779032 346.78803426 17.38848562 344.93669552 41.1015625 333.83984375 C48.33867265 330.11959626 54.51422344 325.70869565 60.6875 320.4375 C61.51507813 319.80328125 62.34265625 319.1690625 63.1953125 318.515625 C70.94013945 312.05755613 76.64021072 303.07369096 81.6875 294.4375 C82.13867188 293.67308594 82.58984375 292.90867187 83.0546875 292.12109375 C93.46683891 273.01059226 96.21595435 247.68956659 90.71875 226.71875 C90.3784375 225.6359375 90.038125 224.553125 89.6875 223.4375 C89.49414062 222.80972656 89.30078125 222.18195313 89.1015625 221.53515625 C81.63107428 197.87861022 65.45478655 178.42608168 43.6875 166.4375 C28.81155045 158.95239973 14.32071394 155.28295282 -2.33482361 155.29705811 C-3.43615822 155.29408698 -4.53749283 155.29111586 -5.67220122 155.2880547 C-9.35821675 155.27939153 -13.04419971 155.27786145 -16.73022461 155.27636719 C-19.37521517 155.27173725 -22.02020281 155.26673258 -24.66519165 155.26132202 C-31.84950493 155.24776783 -39.03381261 155.24171815 -46.21813655 155.23731136 C-50.71040829 155.23454324 -55.2026779 155.23030479 -59.6949482 155.22580719 C-72.15011809 155.21361689 -84.60528627 155.20331804 -97.060462 155.1999321 C-98.25513971 155.19960275 -98.25513971 155.19960275 -99.47395233 155.19926675 C-100.27223918 155.19904847 -101.07052604 155.19883019 -101.8930034 155.1986053 C-103.51045605 155.19816184 -105.12790869 155.19771528 -106.74536133 155.19726562 C-107.54766245 155.1970442 -108.34996358 155.19682277 -109.17657686 155.19659463 C-122.15983371 155.19265151 -135.14303426 155.17521128 -148.12626939 155.1519061 C-161.47879701 155.12813303 -174.83129647 155.1157275 -188.18384558 155.11456418 C-195.67148854 155.11365061 -203.15905819 155.10797907 -210.64668083 155.08974457 C-217.02617538 155.07426275 -223.40557398 155.06927024 -229.78508376 155.07748267 C-233.03369943 155.08136123 -236.28208412 155.07893038 -239.53068352 155.06642532 C-271.8640512 154.94932761 -300.1814776 161.94508186 -323.125 186.25 Z " fill="#000000" transform="translate(383.3125,72.5625)"/>
<path d="M0 0 C3.25599404 2.44199553 4.94471469 3.77164407 6.25 7.6875 C6.33378628 9.9713517 6.35729915 12.257601 6.34765625 14.54296875 C6.3462413 15.20460526 6.34482635 15.86624176 6.34336853 16.54792786 C6.33777996 18.65699828 6.32522965 20.76596177 6.3125 22.875 C6.30748352 24.30663909 6.30292087 25.73827985 6.29882812 27.16992188 C6.2878143 30.67581588 6.27055755 34.1816475 6.25 37.6875 C7.15766113 37.66131592 8.06532227 37.63513184 9.00048828 37.6081543 C12.3888351 37.52261186 15.77602446 37.46010048 19.16503906 37.4128418 C20.62778907 37.38779471 22.09041512 37.35374608 23.55273438 37.31030273 C25.66307219 37.24920644 27.77174752 37.22119565 29.8828125 37.19921875 C31.15012207 37.17303467 32.41743164 37.14685059 33.72314453 37.11987305 C38.37742352 37.86895228 39.93827122 39.3962159 43.25 42.6875 C44.72569445 45.29166668 45.17052433 47.70148566 45.25 50.6875 C43.75611141 55.96004796 41.83477853 58.74028347 37.25 61.6875 C33.83666992 62.14160156 33.83666992 62.14160156 29.98046875 62.078125 C29.29946609 62.07246521 28.61846344 62.06680542 27.91682434 62.06097412 C25.75631355 62.03870481 23.59750354 61.98853318 21.4375 61.9375 C19.96682095 61.91742247 18.49611571 61.89917389 17.02539062 61.8828125 C13.4330475 61.83887326 9.84168994 61.76991456 6.25 61.6875 C6.26571045 62.57010498 6.2814209 63.45270996 6.29760742 64.36206055 C6.34887998 67.65150886 6.38641917 70.94052961 6.41479492 74.23022461 C6.4298376 75.65119141 6.45027704 77.07211213 6.47631836 78.49291992 C6.51290347 80.54096886 6.52977097 82.5884015 6.54296875 84.63671875 C6.5586792 85.86737061 6.57438965 87.09802246 6.59057617 88.3659668 C6.09676979 93.18190645 3.95170176 96.60274854 0.25 99.6875 C-4.28448658 101.19899553 -8.12741316 101.46191645 -12.5 99.375 C-15.75599404 96.93300447 -17.44471469 95.60335593 -18.75 91.6875 C-18.83378628 89.4036483 -18.85729915 87.117399 -18.84765625 84.83203125 C-18.8462413 84.17039474 -18.84482635 83.50875824 -18.84336853 82.82707214 C-18.83777996 80.71800172 -18.82522965 78.60903823 -18.8125 76.5 C-18.80748352 75.06836091 -18.80292087 73.63672015 -18.79882812 72.20507812 C-18.7878143 68.69918412 -18.77055755 65.1933525 -18.75 61.6875 C-20.1114917 61.72677612 -20.1114917 61.72677612 -21.50048828 61.7668457 C-24.8888351 61.85238814 -28.27602446 61.91489952 -31.66503906 61.9621582 C-33.12778907 61.98720529 -34.59041512 62.02125392 -36.05273438 62.06469727 C-38.16307219 62.12579356 -40.27174752 62.15380435 -42.3828125 62.17578125 C-44.28377686 62.21505737 -44.28377686 62.21505737 -46.22314453 62.25512695 C-50.87742352 61.50604772 -52.43827122 59.9787841 -55.75 56.6875 C-57.22569445 54.08333332 -57.67052433 51.67351434 -57.75 48.6875 C-56.25611141 43.41495204 -54.33477853 40.63471653 -49.75 37.6875 C-46.33666992 37.23339844 -46.33666992 37.23339844 -42.48046875 37.296875 C-41.45896477 37.30536469 -41.45896477 37.30536469 -40.41682434 37.31402588 C-38.25631355 37.33629519 -36.09750354 37.38646682 -33.9375 37.4375 C-32.46682095 37.45757753 -30.99611571 37.47582611 -29.52539062 37.4921875 C-25.9330475 37.53612674 -22.34168994 37.60508544 -18.75 37.6875 C-18.76571045 36.80489502 -18.7814209 35.92229004 -18.79760742 35.01293945 C-18.84887998 31.72349114 -18.88641917 28.43447039 -18.91479492 25.14477539 C-18.9298376 23.72380859 -18.95027704 22.30288787 -18.97631836 20.88208008 C-19.01290347 18.83403114 -19.02977097 16.7865985 -19.04296875 14.73828125 C-19.0586792 13.50762939 -19.07438965 12.27697754 -19.09057617 11.0090332 C-18.59676979 6.19309355 -16.45170176 2.77225146 -12.75 -0.3125 C-8.21551342 -1.82399553 -4.37258684 -2.08691645 0 0 Z " fill="#000000" transform="translate(136.75,272.3125)"/>
<path d="M0 0 C5.45781777 5.5821159 7.93086466 11.43599378 8.375 19.25 C8.16416458 26.51762093 5.78705285 33.51450076 0.875 38.9375 C-5.47444718 44.55743623 -12.86680144 46.76219401 -21.26953125 46.37109375 C-29.60388454 45.23838479 -35.08384999 41.95205587 -40.37109375 35.42578125 C-44.51448255 29.25541088 -46.1129292 22.37006449 -45 15 C-42.68550486 6.78727532 -39.03695222 0.60194158 -31.5625 -3.8125 C-20.74352142 -9.33746279 -9.35146338 -7.56633289 0 0 Z M-19 18 C-19 18.99 -19 19.98 -19 21 C-18.34 20.34 -17.68 19.68 -17 19 C-17.66 18.67 -18.32 18.34 -19 18 Z " fill="#000000" transform="translate(400,350)"/>
<path d="M0 0 C6.45766921 3.97723998 11.01306148 9.87585114 12.95703125 17.20703125 C14.6359057 26.5793886 12.39432777 33.85733938 7.171875 41.765625 C0.93786273 47.72257006 -5.07937158 50.22022987 -13.71875 50.58203125 C-21.51563961 50.23805083 -28.15900966 46.99445293 -33.640625 41.453125 C-38.51560692 34.48540891 -40.54312764 27.92375689 -39.640625 19.453125 C-37.88678171 11.9200511 -35.05297871 5.97371152 -28.640625 1.453125 C-19.50798792 -3.78333585 -9.61895022 -4.34997112 0 0 Z M-13.640625 22.453125 C-13.970625 23.113125 -14.300625 23.773125 -14.640625 24.453125 C-13.650625 24.123125 -12.660625 23.793125 -11.640625 23.453125 C-12.300625 23.123125 -12.960625 22.793125 -13.640625 22.453125 Z " fill="#000000" transform="translate(394.640625,250.546875)"/>
<path d="M0 0 C5.77509225 4.21166948 9.66865218 9.4887292 11.12109375 16.546875 C12.19515022 26.25316311 10.25597705 32.7523476 4.99609375 40.796875 C-0.92266298 46.45829448 -6.66764104 48.85021499 -14.87890625 49.171875 C-23.73363384 48.80653336 -29.87519583 46.05603127 -35.87890625 39.546875 C-40.84195019 33.29064356 -42.25543214 26.9521133 -41.703125 19.0234375 C-40.53165879 11.3319927 -36.99670947 6.50479088 -31.44140625 1.234375 C-21.77955357 -5.12830847 -10.21385249 -5.97065926 0 0 Z M-15.87890625 21.546875 C-15.87890625 22.206875 -15.87890625 22.866875 -15.87890625 23.546875 C-15.21890625 23.546875 -14.55890625 23.546875 -13.87890625 23.546875 C-13.87890625 22.886875 -13.87890625 22.226875 -13.87890625 21.546875 C-14.53890625 21.546875 -15.19890625 21.546875 -15.87890625 21.546875 Z " fill="#000000" transform="translate(348.87890625,299.453125)"/>
<path d="M0 0 C5.65477198 3.27920879 9.7398151 7.76887677 12.9375 13.4375 C15.03266051 22.02765807 14.96130932 29.67340198 10.875 37.6875 C7.63603698 42.85784468 2.51764994 47.37290565 -3.234375 49.5234375 C-11.64628776 51.34303565 -19.83341673 50.92116772 -27.31640625 46.546875 C-33.0914985 42.33520552 -36.98505843 37.0581458 -38.4375 30 C-39.51155647 20.29371189 -37.5723833 13.7945274 -32.3125 5.75 C-23.43069031 -2.74564405 -11.41840979 -5.10960803 0 0 Z M-13.4375 23 C-13.4375 23.66 -13.4375 24.32 -13.4375 25 C-12.7775 25 -12.1175 25 -11.4375 25 C-11.4375 24.34 -11.4375 23.68 -11.4375 23 C-12.0975 23 -12.7575 23 -13.4375 23 Z " fill="#000000" transform="translate(441.4375,298)"/>
</svg>
