<?xml version="1.0" encoding="UTF-8"?>
<svg version="1.1" xmlns="http://www.w3.org/2000/svg" width="500" height="500">
<path d="M0 0 C18.9773586 16.38231514 31.12146805 37.18417289 37.57470703 61.359375 C37.61388046 63.02558124 37.6222501 64.69338657 37.57470703 66.359375 C38.78500832 66.34938225 38.78500832 66.34938225 40.01976013 66.33918762 C47.65461737 66.27886924 55.28935771 66.23329588 62.92439175 66.20393848 C66.84886853 66.18833774 70.77314705 66.16720293 74.69750977 66.13305664 C78.4906259 66.100262 82.28355233 66.08248002 86.07679939 66.07474327 C87.51796514 66.06923558 88.95912148 66.05848112 90.40020561 66.04218483 C99.12926953 65.94747368 107.38433158 65.88446262 114.87939453 70.90234375 C115.39759766 71.44503906 115.91580078 71.98773438 116.44970703 72.546875 C116.98337891 73.07667969 117.51705078 73.60648437 118.06689453 74.15234375 C123.50153297 82.10719017 123.00193729 90.60550315 122.96238708 99.838974 C122.96656274 101.42339138 122.97204153 103.00780578 122.9787069 104.59221464 C122.99314975 108.9350285 122.98892042 113.2776524 122.98154008 117.6204766 C122.97680787 122.30836825 122.98931871 126.99621883 122.9995575 131.68409729 C123.01674953 140.86357902 123.0175847 150.0429923 123.01234459 159.22248595 C123.00830257 166.68360999 123.00974684 174.1447138 123.01509285 181.60583687 C123.01584127 182.66789316 123.01658969 183.72994945 123.0173608 184.82418926 C123.01889228 186.98177342 123.02043062 189.13935756 123.02197576 191.29694171 C123.03570216 211.52801796 123.03026203 231.75905554 123.01879055 251.99013091 C123.00885708 270.49724592 123.02180058 289.00426098 123.04572474 307.51136058 C123.07010862 326.51734628 123.07972542 345.52328541 123.07307202 364.52928644 C123.06957834 375.1985846 123.07182174 385.86780587 123.08932304 396.53709221 C123.10403606 405.61916202 123.10469216 414.70110079 123.08725213 423.78316801 C123.07873255 428.4162053 123.07661602 433.04900839 123.09190369 437.68203354 C123.10573206 441.92535852 123.10101155 446.16824828 123.08166445 450.41154797 C123.07789846 451.94443198 123.08084372 453.47735069 123.0912761 455.01020383 C123.20185065 472.50473761 123.20185065 472.50473761 116.79541487 479.22614616 C111.90208081 483.69297124 108.10232744 485.60759474 101.38890457 485.61943722 C100.11095119 485.62650281 98.8329978 485.6335684 97.51631856 485.6408481 C96.09512759 485.63859666 94.67393692 485.63615015 93.25274658 485.63352966 C91.74531626 485.63798097 90.23788828 485.64329465 88.73046374 485.64939839 C84.58195206 485.6636019 80.4335152 485.66524123 76.28498268 485.66480148 C71.8131314 485.66644762 67.34131114 485.67951036 62.86947632 485.69099426 C53.08849668 485.71385929 43.30753872 485.7217665 33.52653599 485.72682071 C27.42038461 485.73007601 21.31423955 485.73659748 15.20809174 485.7438221 C-1.6948514 485.76339006 -18.59778867 485.77979309 -35.50074387 485.78269863 C-36.5827366 485.7828862 -37.66472934 485.78307377 -38.77950974 485.78326702 C-40.97302008 485.78363328 -43.16653041 485.78399698 -45.36004075 485.78435814 C-46.99335623 485.78463235 -46.99335623 485.78463235 -48.65966797 485.78491211 C-50.29497474 485.78518293 -50.29497474 485.78518293 -51.96331802 485.78545923 C-69.63073071 485.78900128 -87.29802154 485.81602475 -104.96539196 485.85341 C-123.10000277 485.89147717 -141.2345531 485.91085599 -159.36920476 485.91115814 C-169.55286601 485.91174308 -179.73638192 485.92025811 -189.9200058 485.94915581 C-198.59122102 485.97364842 -207.26223788 485.98096693 -215.93347833 485.96590828 C-220.35782454 485.95873066 -224.78177891 485.95963334 -229.20608139 485.98231888 C-233.25776666 486.0028948 -237.30875847 486.00032195 -241.36043611 485.97944403 C-242.82478816 485.97594643 -244.28919009 485.98087075 -245.75347671 485.99514847 C-255.02265973 486.07969128 -261.1373828 485.41822849 -267.93328166 478.91670793 C-272.65483996 473.75366298 -273.67468016 468.45545018 -273.67976856 461.64636421 C-273.68297504 460.99350242 -273.68618152 460.34064063 -273.68948516 459.66799515 C-273.69777823 457.48309201 -273.69186342 455.29846348 -273.68598938 453.11355591 C-273.68901038 451.53015394 -273.69289961 449.94675344 -273.69758195 448.36335552 C-273.7078773 444.01412704 -273.70567621 439.66498086 -273.70140135 435.31574559 C-273.69893692 430.62443858 -273.70794479 425.93315153 -273.71543884 421.24185181 C-273.72819579 412.05174819 -273.72997829 402.86167378 -273.72763858 393.67156281 C-273.72585635 386.20228159 -273.72760301 378.73300925 -273.73186302 371.2637291 C-273.73245821 370.2011131 -273.7330534 369.13849711 -273.73366662 368.04368063 C-273.73487836 365.88504768 -273.7360925 363.72641474 -273.737309 361.56778179 C-273.7481884 341.31863069 -273.74602017 321.06949624 -273.73992416 300.82034419 C-273.73475479 282.29304435 -273.74601025 263.76579709 -273.76502237 245.23850764 C-273.78439119 226.21790535 -273.79265844 207.19732795 -273.78889912 188.17671573 C-273.78698561 177.49681231 -273.78948927 166.81695364 -273.80361366 156.13705826 C-273.81551625 147.04505073 -273.81694496 137.9531155 -273.8048235 128.86110701 C-273.7989269 124.22216682 -273.79785694 119.58335894 -273.8098259 114.94442749 C-273.82065783 110.69682599 -273.81761345 106.44946769 -273.80356421 102.2018777 C-273.80090986 100.66625878 -273.80330697 99.13062096 -273.81130008 97.59502055 C-273.88959302 81.43017689 -273.88959302 81.43017689 -268.91748047 74.15234375 C-268.38380859 73.62253906 -267.85013672 73.09273438 -267.30029297 72.546875 C-266.52298828 71.73283203 -266.52298828 71.73283203 -265.72998047 70.90234375 C-257.63157071 65.48052705 -248.47613597 65.96047807 -239.10888672 66.06640625 C-237.642018 66.07201217 -236.1751436 66.07627755 -234.70826721 66.07926941 C-230.87608921 66.09063999 -227.04426064 66.12003835 -223.21221924 66.15338135 C-219.29045333 66.18425177 -215.36863013 66.19781075 -211.44677734 66.21289062 C-203.77279114 66.244917 -196.0990913 66.29601692 -188.42529297 66.359375 C-188.27906494 65.1115625 -188.13283691 63.86375 -187.98217773 62.578125 C-184.94277689 36.64190448 -166.18664945 12.11318366 -146.42529297 -3.640625 C-133.84038532 -12.75107826 -120.35205452 -19.31002134 -105.42529297 -23.640625 C-104.35794922 -23.96289062 -103.29060547 -24.28515625 -102.19091797 -24.6171875 C-66.54127787 -33.57143982 -27.81351416 -23.29927888 0 0 Z M-129.42529297 40.359375 C-135.11608656 47.10514637 -143.42529297 57.18442912 -143.42529297 66.359375 C-98.54529297 66.359375 -53.66529297 66.359375 -7.42529297 66.359375 C-10.34243411 51.77366928 -20.64334411 39.10197438 -32.42529297 30.359375 C-64.28327838 9.76316853 -102.50469203 12.36374175 -129.42529297 40.359375 Z M-229.42529297 110.359375 C-229.42529297 219.919375 -229.42529297 329.479375 -229.42529297 442.359375 C-127.78529297 442.359375 -26.14529297 442.359375 78.57470703 442.359375 C78.57470703 332.799375 78.57470703 223.239375 78.57470703 110.359375 C-23.06529297 110.359375 -124.70529297 110.359375 -229.42529297 110.359375 Z " fill="#231E1F" transform="translate(331.42529296875,26.640625)"/>
<path d="M0 0 C14.52 0 29.04 0 44 0 C44.25 15.5 44.25 15.5 44.29785156 20.27929688 C44.59927685 33.07876659 46.53400279 45.76548223 52.5625 57.25 C52.89693115 57.90274902 53.2313623 58.55549805 53.57592773 59.22802734 C57.32125364 66.15666867 62.35935204 71.57333717 68 77 C68.57105469 77.59039062 69.14210938 78.18078125 69.73046875 78.7890625 C82.79487278 91.34969773 101.34870335 95.6595513 118.86962891 95.46875 C137.62970999 94.84546992 153.94014114 87.40781247 167 74 C167.69480469 73.33742188 168.38960937 72.67484375 169.10546875 71.9921875 C173.41008047 67.61264057 176.43760996 62.84973867 179.25 57.4375 C179.56727051 56.84380615 179.88454102 56.2501123 180.21142578 55.63842773 C186.45972334 42.91363678 187.61047078 29.43583665 187.75 15.5 C187.8325 10.385 187.915 5.27 188 0 C202.52 0 217.04 0 232 0 C232.49079023 37.13646074 229.53088253 69.44572855 205 99 C204.26523437 99.91007812 203.53046875 100.82015625 202.7734375 101.7578125 C184.06644154 123.71819906 155.58872808 137.43939232 127 140 C92.35038998 141.81516348 61.72457845 131.88386967 35.75 108.6875 C14.58090555 89.05037949 1.35271231 59.69754121 0 31 C-0.21351028 20.66502138 -0.08911633 10.33749376 0 0 Z " fill="#221E1F" transform="translate(140,173)"/>
</svg>
